<?xml version="1.0" encoding="UTF-8" standalone="no"?>
<svg
   id="Component_148_4"
   data-name="Component 148 – 4"
   width="82"
   height="62"
   viewBox="0 0 82.000001 61.999999"
   version="1.1"
   sodipodi:docname="app_logo2.svg"
   inkscape:version="1.1.2 (0a00cf5339, 2022-02-04)"
   xmlns:inkscape="http://www.inkscape.org/namespaces/inkscape"
   xmlns:sodipodi="http://sodipodi.sourceforge.net/DTD/sodipodi-0.dtd"
   xmlns="http://www.w3.org/2000/svg"
   xmlns:svg="http://www.w3.org/2000/svg">
  <defs
     id="defs8" />
  <sodipodi:namedview
     id="namedview6"
     pagecolor="#505050"
     bordercolor="#ffffff"
     borderopacity="1"
     inkscape:pageshadow="0"
     inkscape:pageopacity="0"
     inkscape:pagecheckerboard="1"
     showgrid="false"
     height="82px"
     inkscape:zoom="8.798228"
     inkscape:cx="37.90536"
     inkscape:cy="40.8605"
     inkscape:window-width="1920"
     inkscape:window-height="1016"
     inkscape:window-x="0"
     inkscape:window-y="833"
     inkscape:window-maximized="1"
     inkscape:current-layer="Component_148_4" />
  <g
     id="Group_301"
     data-name="Group 301"
     transform="translate(-215.06815,-1229.1858)"
     style="fill:#ffbb00;fill-opacity:1">
    <path
       id="Path_3943"
       data-name="Path 3943"
       d="m 215.823,1253.448 a 5.613,5.613 0 0 0 -0.246,4.559 6.485,6.485 0 0 0 8.133,3.62 l 21.519,-7.176 -16.452,32.591 a 5.6,5.6 0 0 0 -0.246,4.559 6.1,6.1 0 0 0 3.264,3.388 6.559,6.559 0 0 0 8.48,-2.828 l 10.854,-21.55 c 6.179,8.777 18.152,12.821 29.2,9.138 12.988,-4.331 19.771,-17.711 15.148,-29.885 -4.29,-11.3 -16.9,-17.584 -29.077,-14.963 l -2.811,0.766 -44.146,14.722 a 6.226,6.226 0 0 0 -3.62,3.059 z m 53.949,-9.663 c 6.95,-0.966 13.884,2.767 16.329,9.2 2.781,7.324 -1.3,15.369 -9.11,17.974 -7.81,2.605 -16.4,-1.216 -19.182,-8.54 a 13.271,13.271 0 0 1 -0.806,-3.4 13.431,13.431 0 0 1 2.649,-9.381 13.6,13.6 0 0 1 0.868,-1.053 15.022,15.022 0 0 1 6.4,-4.138 15.97,15.97 0 0 1 2.853,-0.662 z"
       transform="translate(0,-4.759)"
       fill="#ffffff"
       style="fill:#ffbb00;fill-opacity:1" />
    <ellipse
       id="Ellipse_115"
       data-name="Ellipse 115"
       cx="10.15"
       cy="9.5120001"
       rx="10.15"
       ry="9.5120001"
       transform="translate(261.806,1243.438)"
       fill="#ffffff"
       style="fill:#ffbb00;fill-opacity:1" />
  </g>
</svg>
