<svg xmlns="http://www.w3.org/2000/svg" width="436.582" height="326.566" viewBox="0 0 436.582 326.566">
  <g id="Group_1609" data-name="Group 1609" transform="translate(-139.724 -87.459)" opacity="0.19">
    <path id="Path_3943" data-name="Path 3943" d="M3.292,102.033a29.867,29.867,0,0,0-1.316,24.3c6.3,16.555,25.744,25.193,43.449,19.3l114.964-38.256L72.5,281.122a29.813,29.813,0,0,0-1.316,24.3,32.529,32.529,0,0,0,17.437,18.06c16.952,7.531,37.228.782,45.3-15.075l57.987-114.882c33.011,46.792,96.977,68.351,155.993,48.712,69.385-23.089,105.623-94.417,80.927-159.319C405.907,22.7,338.53-10.822,273.485,3.154L258.469,7.239,22.623,85.722A33.241,33.241,0,0,0,3.292,102.033ZM291.508,50.517c37.127-5.148,74.176,14.753,87.236,49.069,14.857,39.045-6.933,81.935-48.667,95.821s-87.62-6.48-102.48-45.525a70.617,70.617,0,0,1-4.308-18.129A71.5,71.5,0,0,1,237.44,81.742a72.493,72.493,0,0,1,4.639-5.611A80.271,80.271,0,0,1,276.29,54.071,85.511,85.511,0,0,1,291.508,50.517Z" transform="translate(139.724 87.459)" fill="#565656"/>
    <ellipse id="Ellipse_115" data-name="Ellipse 115" cx="54.226" cy="50.708" rx="54.226" ry="50.708" transform="translate(388.672 161.494)" fill="#565656"/>
  </g>
</svg>
